<svg version="1.1" id="Layer_1" xmlns="http://www.w3.org/2000/svg" xmlns:xlink="http://www.w3.org/1999/xlink" x="0px" y="0px"
	 width="100%" viewBox="0 0 496 496" enable-background="new 0 0 496 496" xml:space="preserve">
<path fill="#af90a5" opacity="1.000000" stroke="none" 
	d="
M84.688171,75.000183 
	C84.694611,69.002518 84.697662,63.504787 84.709427,58.007076 
	C84.718536,53.750908 86.634415,51.628216 91.115120,51.640179 
	C120.769386,51.719372 150.429047,51.384266 180.075790,51.868080 
	C191.699173,52.057766 203.219131,54.374638 214.066315,59.034115 
	C239.869446,70.117996 248.366806,90.830368 242.928223,116.213036 
	C239.613266,131.684448 230.489990,143.332932 215.984268,150.187469 
	C211.862473,152.135193 211.270599,154.063568 213.195297,158.234039 
	C222.473373,178.338074 231.418915,198.595749 240.442535,218.816742 
	C241.250824,220.628052 242.032120,222.520905 242.376053,224.455841 
	C243.149658,228.808228 241.217255,231.286972 236.848923,231.312408 
	C221.355942,231.402634 205.862061,231.329620 190.368530,231.337509 
	C186.332413,231.339569 184.582062,228.839264 183.342911,225.420364 
	C176.481171,206.488449 169.512833,187.595230 162.630020,168.670914 
	C159.928131,161.242096 149.694061,157.195526 142.737030,160.896622 
	C140.192245,162.250427 140.344971,164.661667 140.344269,167.004639 
	C140.338730,185.330475 140.341370,203.656296 140.334961,221.982132 
	C140.332138,230.097183 139.145004,231.337799 131.192032,231.355179 
	C118.863815,231.382141 106.535454,231.384552 94.207237,231.357269 
	C85.625427,231.338287 84.698830,230.419601 84.696892,221.939911 
	C84.685745,173.126648 84.689705,124.313377 84.688171,75.000183 
M186.657745,108.161621 
	C186.666992,97.275246 181.849258,90.801414 171.146164,88.913879 
	C162.460342,87.382088 153.566940,88.270874 144.775497,88.537170 
	C141.607864,88.633118 140.429443,91.357491 140.401382,94.274971 
	C140.326233,102.091576 140.357101,109.909294 140.364960,117.726555 
	C140.369156,121.888641 142.539764,123.699554 146.634537,123.656883 
	C153.785828,123.582367 160.943619,123.807144 168.089264,123.592720 
	C178.780624,123.271912 184.084885,118.962852 186.657745,108.161621 
z"/>
<path fill="#af90a5" opacity="1.000000" stroke="none" 
	d="
M345.160706,155.809326 
	C345.617676,157.957718 346.114319,159.672012 347.571503,160.936783 
	C350.054047,159.945038 350.033142,157.671951 350.542023,155.889786 
	C359.764282,123.591240 368.961548,91.285309 378.026794,58.942459 
	C379.451080,53.860924 382.104370,51.448242 387.596619,51.590286 
	C398.086731,51.861591 408.588959,51.636730 419.085785,51.687614 
	C426.012390,51.721191 428.166565,54.575565 425.947235,61.196178 
	C415.104553,93.541313 404.161621,125.852859 393.255524,158.176743 
	C385.967896,179.776093 378.686890,201.377670 371.393738,222.975159 
	C368.953247,230.202316 367.401611,231.331421 359.846283,231.339615 
	C347.349792,231.353149 334.852142,231.242081 322.357300,231.384598 
	C317.120392,231.444305 314.030945,229.306870 312.344788,224.285599 
	C294.175995,170.180466 275.897888,116.112053 257.682220,62.022640 
	C255.048767,54.202896 256.946594,51.686131 265.288879,51.675663 
	C278.951752,51.658520 292.618317,51.850658 306.275635,51.574642 
	C311.596222,51.467110 314.052765,53.726017 315.518341,58.580269 
	C325.275238,90.897095 335.199707,123.163345 345.160706,155.809326 
z"/>
<path fill="#af90a5" opacity="1.000000" stroke="none" 
	d="
M209.999908,444.320374 
	C171.847549,444.319092 134.195190,444.318726 96.542839,444.312744 
	C94.544044,444.312439 92.538223,444.363373 90.547722,444.221375 
	C83.544319,443.721924 80.049919,440.521698 79.800079,433.581421 
	C79.500595,425.262146 79.604988,416.922424 79.748329,408.595245 
	C79.834930,403.564606 82.747955,399.783478 86.358246,396.710602 
	C100.308678,384.836761 114.374161,373.098114 128.396133,361.308319 
	C141.269409,350.484375 154.623398,340.212860 166.456650,328.193665 
	C169.862579,324.734222 173.243500,321.202209 174.453568,316.322937 
	C177.659454,303.395813 167.230789,294.111816 153.816452,297.829956 
	C147.689957,299.528076 143.362854,303.601013 139.817841,308.548462 
	C137.010025,312.467072 134.538986,316.631653 132.002945,320.739227 
	C128.717239,326.061005 124.678276,327.974884 118.909691,325.675293 
	C107.299561,321.046967 96.261696,315.140656 85.320847,309.135529 
	C80.395363,306.432037 78.927048,299.904968 82.004532,294.528870 
	C95.108009,271.638245 113.131683,254.581482 139.734985,248.939316 
	C160.689682,244.495148 181.384232,245.988007 201.532715,253.742859 
	C232.643219,265.716827 248.331436,299.590210 236.877258,330.592346 
	C232.192963,343.270935 223.012283,352.467896 212.355423,360.152039 
	C201.282547,368.136169 189.811615,375.568176 178.518524,383.247131 
	C177.022125,384.264679 175.547958,385.314880 173.596176,386.675812 
	C176.380249,387.798523 178.800995,387.670166 181.188980,387.672333 
	C197.182907,387.686890 213.176849,387.667755 229.170731,387.697815 
	C239.120621,387.716522 242.297256,390.926697 242.308044,400.872009 
	C242.319077,411.034821 242.341629,421.197693 242.309631,431.360382 
	C242.282059,440.118378 238.387283,444.095917 229.491180,444.284424 
	C223.163330,444.418457 216.830505,444.316650 209.999908,444.320374 
M165.934143,343.459076 
	C163.050293,345.978577 160.219955,348.562592 157.273941,351.007172 
	C137.666748,367.277130 118.123810,383.626740 98.355080,399.698425 
	C92.651688,404.335175 89.098320,409.321198 90.219154,417.077881 
	C90.785095,420.994476 90.478058,425.068024 90.274612,429.055725 
	C90.099648,432.485046 91.330605,433.747589 94.852287,433.740875 
	C138.998642,433.656708 183.145279,433.656219 227.291626,433.740784 
	C230.919739,433.747742 231.859024,432.226715 231.788666,428.930511 
	C231.639374,421.936920 231.785934,414.937592 231.737137,407.941132 
	C231.662338,397.214386 233.067276,398.260193 222.221069,398.241547 
	C202.230255,398.207123 182.239197,398.270508 162.248550,398.203125 
	C158.275650,398.189728 153.789108,398.422607 152.399017,393.401306 
	C151.034744,388.473236 154.890762,386.303925 158.199707,384.053619 
	C162.331375,381.243774 166.557037,378.570770 170.661896,375.723053 
	C184.748123,365.950684 199.691727,357.393005 212.804504,346.241547 
	C237.254944,325.448303 235.512589,288.409485 209.194809,270.093994 
	C191.215668,257.581635 170.834625,255.604263 149.925232,257.880920 
	C124.741966,260.622925 106.864052,274.933411 93.389900,295.625610 
	C91.172386,299.031067 91.045097,300.999725 95.197533,302.785767 
	C101.001564,305.282227 106.596077,308.268555 112.263916,311.078186 
	C122.021477,315.915192 122.033646,315.937286 128.093414,306.698883 
	C134.282059,297.263916 141.604523,289.454193 153.385513,287.098663 
	C167.568649,284.262848 181.616226,291.658966 184.798767,304.332886 
	C187.018250,313.171570 185.351883,321.463806 179.864136,328.884003 
	C175.977173,334.139740 171.272980,338.612915 165.934143,343.459076 
z"/>
<path fill="#af90a5" opacity="1.000000" stroke="none" 
	d="
M422.309906,374.039337 
	C422.303802,380.861023 422.415161,387.192413 422.261810,393.517365 
	C422.091217,400.553314 418.327881,404.177063 411.293640,404.317261 
	C407.631104,404.390289 403.958771,404.481567 400.304169,404.298889 
	C396.696472,404.118530 395.192688,405.441406 395.294495,409.196014 
	C395.493042,416.518433 395.368561,423.850189 395.341888,431.177948 
	C395.311829,439.431732 391.730042,443.895050 383.519196,444.110413 
	C368.542328,444.503265 353.542419,444.451843 338.562744,444.113983 
	C331.351227,443.951355 327.786041,439.687408 327.711395,432.456299 
	C327.632324,424.796661 327.571106,417.129913 327.820404,409.476685 
	C327.946899,405.593719 326.683380,404.239410 322.701324,404.268982 
	C301.718201,404.424774 280.733246,404.357635 259.748993,404.324768 
	C251.370697,404.311646 247.636078,401.172974 247.200211,392.895569 
	C246.789291,385.092102 247.093002,377.250031 247.115952,369.425049 
	C247.136902,362.292145 251.020950,356.892273 255.135147,351.573578 
	C272.963806,328.525238 290.765930,305.456299 308.573975,282.391998 
	C314.781189,274.352661 321.168732,266.443237 327.118469,258.217377 
	C331.850586,251.674988 338.178741,248.857819 345.932983,248.798996 
	C358.422852,248.704285 370.915527,248.650162 383.404022,248.810196 
	C392.079132,248.921356 395.337067,252.441025 395.341064,261.130188 
	C395.354797,290.941223 395.446014,320.752869 395.247772,350.562592 
	C395.216034,355.334015 396.526276,357.295288 401.397919,356.748810 
	C404.193726,356.435211 407.054169,356.674805 409.885132,356.701782 
	C418.932404,356.788025 422.260406,360.101746 422.309448,369.049622 
	C422.317657,370.548462 422.310638,372.047333 422.309906,374.039337 
M338.312561,410.531616 
	C338.284790,416.360535 338.480530,422.201996 338.155365,428.014282 
	C337.914764,432.314514 339.246582,433.896484 343.749023,433.788574 
	C355.400696,433.509399 367.068207,433.504395 378.719635,433.789185 
	C383.541168,433.907043 385.115143,432.251831 385.076782,427.487122 
	C385.007263,418.846954 384.414612,410.184875 385.493958,401.550110 
	C386.029877,397.262787 388.373077,395.120728 392.564880,394.478271 
	C397.546692,393.714752 402.539734,394.096802 407.525604,394.035431 
	C410.433075,393.999664 411.768188,392.920746 411.707825,389.881378 
	C411.585510,383.721527 411.583649,377.555878 411.705475,371.396057 
	C411.764191,368.428009 410.647064,367.122528 407.623474,367.216400 
	C403.796844,367.335236 399.962799,367.266510 396.132782,367.216156 
	C388.250092,367.112579 385.686401,364.760254 385.058929,356.938324 
	C384.872955,354.619934 384.960510,352.277863 384.959625,349.946625 
	C384.949005,321.799988 384.847473,293.652740 385.033752,265.507355 
	C385.065674,260.680420 383.553131,259.139679 378.756744,259.284515 
	C368.440094,259.596008 358.098877,259.639557 347.785065,259.286377 
	C342.014984,259.088745 338.158295,261.172821 334.691132,265.711151 
	C312.557831,294.682343 290.537811,323.751312 267.770447,352.220276 
	C260.552612,361.245605 256.393646,370.274200 258.026855,381.770020 
	C258.305084,383.728363 258.254944,385.785767 258.013000,387.755219 
	C257.421753,392.567871 259.395630,394.133179 264.197693,394.081787 
	C283.681641,393.873291 303.169037,393.990906 322.655182,393.992859 
	C337.029694,393.994293 338.304169,395.263519 338.312561,410.531616 
z"/>
<path fill="#af90a5" opacity="1.000000" stroke="none"
	d="
M333.808746,303.476257 
	C338.445435,304.386047 339.076233,307.972198 339.117828,311.203522 
	C339.323181,327.162689 339.353546,343.127380 339.159058,359.086609 
	C339.093079,364.498779 335.818237,367.152100 329.853699,367.214264 
	C319.545868,367.321716 309.235718,367.275360 298.927155,367.202881 
	C295.908722,367.181671 292.654419,366.993347 291.116669,363.856720 
	C289.490051,360.538849 290.639923,357.389069 292.694336,354.526245 
	C302.289856,341.154907 311.876404,327.777130 321.471252,314.405304 
	C323.215637,311.974243 324.932220,309.520538 326.756348,307.150146 
	C328.429749,304.975586 330.456940,303.306976 333.808746,303.476257 
M328.481476,354.737854 
	C328.481476,344.676514 328.481476,334.615173 328.481476,324.553833 
	C328.138489,324.404541 327.795532,324.255280 327.452545,324.105988 
	C320.015930,334.548859 312.579315,344.991699 305.142700,355.434540 
	C305.487122,355.830719 305.831543,356.226898 306.175964,356.623077 
	C313.484619,356.066223 320.868408,358.111542 328.481476,354.737854 
z"/>
</svg>