<svg version="1.1" id="Layer_1" xmlns="http://www.w3.org/2000/svg" xmlns:xlink="http://www.w3.org/1999/xlink" x="0px" y="0px"
	 width="100%" viewBox="-100 0 700 500" enable-background="new 0 0 1500 1500" xml:space="preserve">
<path fill="#581845" opacity="1.000000" stroke="none" 
	d="
M1.000005,444.000000 
	C1.000000,315.644043 1.000000,187.288055 1.347283,58.298538 
	C6.813429,31.455309 21.717352,13.524437 46.911999,4.372561 
	C50.537922,3.055456 54.300606,2.114845 58.000000,1.000000 
	C186.022644,1.000000 314.045288,1.000000 442.677551,1.361521 
	C476.793762,7.314303 499.996033,34.741501 499.996216,68.762169 
	C499.996765,190.075226 499.996979,311.388306 499.996094,432.701355 
	C499.995819,470.311371 470.396332,499.995239 432.888702,499.995789 
	C311.408997,499.997559 189.929291,499.997375 68.449593,499.995789 
	C36.571941,499.995361 10.470171,479.426666 2.798995,448.329773 
	C2.428983,446.829865 1.609946,445.440735 1.000005,444.000000 
M151.500015,52.055504 
	C131.672363,52.055626 111.844696,52.040543 92.017090,52.065723 
	C86.520218,52.072704 85.183434,53.301254 85.179764,58.793613 
	C85.143044,113.778076 85.143448,168.762573 85.175064,223.747040 
	C85.178467,229.665298 86.604660,230.974731 92.665947,230.990768 
	C105.495567,231.024704 118.325432,231.028488 131.155029,230.990402 
	C138.370773,230.968979 139.998001,229.340195 140.007935,222.203995 
	C140.030899,205.708679 139.932404,189.212769 140.040436,172.718140 
	C140.138123,157.799850 137.879776,160.283951 153.113831,159.880890 
	C158.296844,159.743729 160.902863,161.929123 162.598160,166.717529 
	C169.476364,186.145325 176.748260,205.433701 183.634506,224.858719 
	C185.224777,229.344620 187.742661,231.134781 192.464401,231.069443 
	C206.291183,230.878082 220.122314,231.004990 233.951752,231.000259 
	C242.237823,230.997437 244.012634,228.200562 240.562286,220.521896 
	C231.363342,200.049774 222.143021,179.587234 212.938873,159.117416 
	C210.010635,152.605087 210.101379,152.751938 216.250381,149.522751 
	C233.683945,140.367340 242.666870,125.584389 243.836273,106.194237 
	C244.995300,86.976059 237.236160,72.151100 220.171021,62.842133 
	C214.967361,60.003548 209.290085,57.821152 203.593353,56.138412 
	C186.888458,51.203999 169.643768,52.056236 151.500015,52.055504 
M370.204559,224.619507 
	C382.120697,189.340775 394.042877,154.064087 405.950592,118.782524 
	C412.435486,99.568428 418.927155,80.356506 425.349640,61.121532 
	C427.499481,54.682953 425.757812,52.097351 419.391724,52.068348 
	C409.394226,52.022797 399.396362,52.052986 389.398651,52.056034 
	C381.302795,52.058506 380.422852,52.707912 378.240753,60.373474 
	C368.818787,93.472366 359.408112,126.574478 349.968170,159.668243 
	C349.512451,161.265869 348.817993,162.795380 347.727020,165.715454 
	C346.715210,162.573349 346.190857,161.012909 345.709229,159.439392 
	C335.490997,126.056725 325.281525,92.671379 315.059814,59.289772 
	C313.039093,52.690624 312.161865,52.061172 305.153381,52.057503 
	C291.489838,52.050343 277.826263,52.034218 264.162811,52.064465 
	C257.334930,52.079578 255.660416,54.298466 257.800171,60.653725 
	C276.151886,115.159721 294.561401,169.646271 312.863373,224.168945 
	C314.410431,228.777756 317.217926,231.016449 322.012909,231.007126 
	C335.176483,230.981522 348.340118,230.999008 361.503754,230.989227 
	C365.565216,230.986206 368.576691,229.370544 370.204559,224.619507 
M98.539963,443.888489 
	C141.020874,443.888489 183.501770,443.888580 225.982681,443.888092 
	C227.315414,443.888062 228.653046,443.955444 229.980072,443.866699 
	C238.413391,443.302551 241.856445,439.634552 241.881607,431.140076 
	C241.910736,421.311188 241.889786,411.482178 241.888123,401.653198 
	C241.886322,390.954712 239.055206,388.131409 228.216217,388.120270 
	C210.723999,388.102264 193.231735,388.122253 175.739532,388.101929 
	C174.402039,388.100372 173.064774,387.907227 170.937958,387.741699 
	C172.706223,386.500458 173.658112,385.832214 174.610031,385.164062 
	C189.582245,374.655090 205.228928,364.975586 219.385910,353.464020 
	C248.631973,329.683014 246.520706,284.241791 215.846741,262.459290 
	C196.972961,249.056488 175.574371,245.988724 153.115707,247.522919 
	C121.198364,249.703247 99.162148,267.061523 83.064865,293.363831 
	C79.085205,299.866425 80.621399,306.308258 86.940636,309.595154 
	C97.113068,314.886322 107.392799,319.988983 117.783669,324.835846 
	C124.071457,327.768799 128.038773,326.165894 131.699631,320.346344 
	C134.794083,315.427185 137.761581,310.384186 141.315262,305.807526 
	C147.753860,297.515564 157.108490,294.696686 166.144806,297.774323 
	C172.919144,300.081573 176.409943,305.779572 175.678726,312.839172 
	C175.038040,319.024567 171.890793,323.848755 167.561829,327.879395 
	C159.647156,335.248627 151.659058,342.556671 143.407501,349.542877 
	C124.730309,365.355804 105.862534,380.943481 87.098701,396.654358 
	C82.069374,400.865387 79.539612,406.132355 80.047791,412.886444 
	C80.384308,417.359161 80.111542,421.877655 80.111542,426.375671 
	C80.111549,442.116180 81.876060,443.887390 98.539963,443.888489 
M303.025024,290.502808 
	C287.159332,311.060547 271.401154,331.702698 255.366806,352.128052 
	C250.100388,358.836700 246.949097,365.854614 247.673691,374.577423 
	C248.127167,380.036346 247.736633,385.563721 247.762909,391.060211 
	C247.809570,400.817566 250.932755,403.993683 260.575134,404.003967 
	C281.229065,404.026001 301.883026,404.010773 322.536987,404.010773 
	C324.332001,404.010773 326.127014,404.010742 328.119812,404.010742 
	C328.119812,413.399475 328.104065,422.342316 328.124298,431.285126 
	C328.143738,439.877930 331.442474,443.643555 340.063110,443.799896 
	C354.049835,444.053589 368.049438,444.092194 382.034210,443.788971 
	C391.642303,443.580658 394.999237,439.666718 395.008942,430.008667 
	C395.017578,421.416626 395.010742,412.824585 395.010742,404.010620 
	C400.279144,404.010620 404.923340,404.034424 409.567169,404.005524 
	C418.547089,403.949646 421.814026,400.663147 421.870483,391.554321 
	C421.916931,384.059235 421.910858,376.563477 421.872070,369.068268 
	C421.826721,360.303650 418.635590,357.191833 409.675903,357.129791 
	C404.902832,357.096741 400.129395,357.123901 395.010742,357.123901 
	C395.010742,354.795502 395.010742,352.996887 395.010742,351.198242 
	C395.010773,321.383270 395.019592,291.568298 395.005463,261.753326 
	C395.001129,252.616638 391.963989,249.480820 382.744568,249.401260 
	C370.919403,249.299179 359.090118,249.527618 347.267487,249.327271 
	C338.609222,249.180557 332.032257,252.242569 326.861664,259.436523 
	C319.385651,269.837982 311.292328,279.795746 303.025024,290.502808 
z"/>
<path fill="#FEFEFE" opacity="1.000000" stroke="none" 
	d="
M152.000031,52.055504 
	C169.643768,52.056236 186.888458,51.203999 203.593353,56.138412 
	C209.290085,57.821152 214.967361,60.003548 220.171021,62.842133 
	C237.236160,72.151100 244.995300,86.976059 243.836273,106.194237 
	C242.666870,125.584389 233.683945,140.367340 216.250381,149.522751 
	C210.101379,152.751938 210.010635,152.605087 212.938873,159.117416 
	C222.143021,179.587234 231.363342,200.049774 240.562286,220.521896 
	C244.012634,228.200562 242.237823,230.997437 233.951752,231.000259 
	C220.122314,231.004990 206.291183,230.878082 192.464401,231.069443 
	C187.742661,231.134781 185.224777,229.344620 183.634506,224.858719 
	C176.748260,205.433701 169.476364,186.145325 162.598160,166.717529 
	C160.902863,161.929123 158.296844,159.743729 153.113831,159.880890 
	C137.879776,160.283951 140.138123,157.799850 140.040436,172.718140 
	C139.932404,189.212769 140.030899,205.708679 140.007935,222.203995 
	C139.998001,229.340195 138.370773,230.968979 131.155029,230.990402 
	C118.325432,231.028488 105.495567,231.024704 92.665947,230.990768 
	C86.604660,230.974731 85.178467,229.665298 85.175064,223.747040 
	C85.143448,168.762573 85.143044,113.778076 85.179764,58.793613 
	C85.183434,53.301254 86.520218,52.072704 92.017090,52.065723 
	C111.844696,52.040543 131.672363,52.055626 152.000031,52.055504 
M140.901260,89.499161 
	C140.662521,99.935738 140.294922,110.373367 140.381027,120.807266 
	C140.389786,121.870407 143.097321,123.773705 144.597595,123.819809 
	C153.252136,124.085793 161.935211,124.219757 170.579697,123.801094 
	C180.017456,123.344017 186.149414,117.644211 187.025803,109.393517 
	C188.104736,99.236320 183.542969,91.383842 174.152863,89.108505 
	C168.915649,87.839462 163.273666,87.982483 157.812790,87.967613 
	C152.383194,87.952820 146.951950,88.537224 140.901260,89.499161 
z"/>
<path fill="#FEFEFE" opacity="1.000000" stroke="none" 
	d="
M370.094177,224.987732 
	C368.576691,229.370544 365.565216,230.986206 361.503754,230.989227 
	C348.340118,230.999008 335.176483,230.981522 322.012909,231.007126 
	C317.217926,231.016449 314.410431,228.777756 312.863373,224.168945 
	C294.561401,169.646271 276.151886,115.159721 257.800171,60.653725 
	C255.660416,54.298466 257.334930,52.079578 264.162811,52.064465 
	C277.826263,52.034218 291.489838,52.050343 305.153381,52.057503 
	C312.161865,52.061172 313.039093,52.690624 315.059814,59.289772 
	C325.281525,92.671379 335.490997,126.056725 345.709229,159.439392 
	C346.190857,161.012909 346.715210,162.573349 347.727020,165.715454 
	C348.817993,162.795380 349.512451,161.265869 349.968170,159.668243 
	C359.408112,126.574478 368.818787,93.472366 378.240753,60.373474 
	C380.422852,52.707912 381.302795,52.058506 389.398651,52.056034 
	C399.396362,52.052986 409.394226,52.022797 419.391724,52.068348 
	C425.757812,52.097351 427.499481,54.682953 425.349640,61.121532 
	C418.927155,80.356506 412.435486,99.568428 405.950592,118.782524 
	C394.042877,154.064087 382.120697,189.340775 370.094177,224.987732 
z"/>
<path fill="#F9F7F8" opacity="1.000000" stroke="none" 
	d="
M98.049118,443.888489 
	C81.876060,443.887390 80.111549,442.116180 80.111542,426.375671 
	C80.111542,421.877655 80.384308,417.359161 80.047791,412.886444 
	C79.539612,406.132355 82.069374,400.865387 87.098701,396.654358 
	C105.862534,380.943481 124.730309,365.355804 143.407501,349.542877 
	C151.659058,342.556671 159.647156,335.248627 167.561829,327.879395 
	C171.890793,323.848755 175.038040,319.024567 175.678726,312.839172 
	C176.409943,305.779572 172.919144,300.081573 166.144806,297.774323 
	C157.108490,294.696686 147.753860,297.515564 141.315262,305.807526 
	C137.761581,310.384186 134.794083,315.427185 131.699631,320.346344 
	C128.038773,326.165894 124.071457,327.768799 117.783669,324.835846 
	C107.392799,319.988983 97.113068,314.886322 86.940636,309.595154 
	C80.621399,306.308258 79.085205,299.866425 83.064865,293.363831 
	C99.162148,267.061523 121.198364,249.703247 153.115707,247.522919 
	C175.574371,245.988724 196.972961,249.056488 215.846741,262.459290 
	C246.520706,284.241791 248.631973,329.683014 219.385910,353.464020 
	C205.228928,364.975586 189.582245,374.655090 174.610031,385.164062 
	C173.658112,385.832214 172.706223,386.500458 170.937958,387.741699 
	C173.064774,387.907227 174.402039,388.100372 175.739532,388.101929 
	C193.231735,388.122253 210.723999,388.102264 228.216217,388.120270 
	C239.055206,388.131409 241.886322,390.954712 241.888123,401.653198 
	C241.889786,411.482178 241.910736,421.311188 241.881607,431.140076 
	C241.856445,439.634552 238.413391,443.302551 229.980072,443.866699 
	C228.653046,443.955444 227.315414,443.888062 225.982681,443.888092 
	C183.501770,443.888580 141.020874,443.888489 98.049118,443.888489 
M217.887146,276.635498 
	C215.371323,274.462067 212.996231,272.094910 210.316055,270.147675 
	C196.409195,260.043823 180.431824,257.058472 163.667206,256.615448 
	C131.593796,255.767868 108.336548,270.392426 91.839119,297.111633 
	C90.648293,299.040314 89.929176,300.681763 92.577789,301.982422 
	C102.527016,306.868225 112.462646,311.781708 122.514091,316.739441 
	C125.063148,312.746826 127.209976,308.989197 129.748932,305.518402 
	C132.293549,302.039856 134.966476,298.577911 138.041489,295.578522 
	C148.842651,285.042847 167.233292,284.248993 177.714752,293.641663 
	C187.717117,302.605011 188.162628,318.856628 177.714127,330.496246 
	C170.407822,338.635437 162.148514,345.999573 153.803802,353.110107 
	C134.159042,369.849426 114.181114,386.197296 94.426598,402.808899 
	C92.603737,404.341766 90.251144,406.562347 90.135422,408.577911 
	C89.653069,416.978180 89.932419,425.422180 89.932419,433.724670 
	C137.733887,433.724670 184.937500,433.724670 232.049896,433.724670 
	C232.049896,421.570282 232.049896,409.811005 232.049896,397.639160 
	C229.954208,397.639160 228.153702,397.639191 226.353195,397.639191 
	C205.193634,397.639160 184.034058,397.648956 162.874527,397.621765 
	C161.053787,397.619415 159.186707,397.585114 157.421555,397.198486 
	C152.163345,396.046844 150.815475,391.404541 154.617325,387.515381 
	C155.881149,386.222534 157.453537,385.205597 158.969772,384.189178 
	C172.240479,375.292847 185.558197,366.466431 198.805511,357.535553 
	C208.640198,350.905334 218.040527,343.794647 224.433655,333.465515 
	C233.635849,318.597839 232.946838,293.210114 217.887146,276.635498 
z"/>
<path fill="#FBFAFB" opacity="1.000000" stroke="none" 
	d="
M303.243713,290.222809 
	C311.292328,279.795746 319.385651,269.837982 326.861664,259.436523 
	C332.032257,252.242569 338.609222,249.180557 347.267487,249.327271 
	C359.090118,249.527618 370.919403,249.299179 382.744568,249.401260 
	C391.963989,249.480820 395.001129,252.616638 395.005463,261.753326 
	C395.019592,291.568298 395.010773,321.383270 395.010742,351.198242 
	C395.010742,352.996887 395.010742,354.795502 395.010742,357.123901 
	C400.129395,357.123901 404.902832,357.096741 409.675903,357.129791 
	C418.635590,357.191833 421.826721,360.303650 421.872070,369.068268 
	C421.910858,376.563477 421.916931,384.059235 421.870483,391.554321 
	C421.814026,400.663147 418.547089,403.949646 409.567169,404.005524 
	C404.923340,404.034424 400.279144,404.010620 395.010742,404.010620 
	C395.010742,412.824585 395.017578,421.416626 395.008942,430.008667 
	C394.999237,439.666718 391.642303,443.580658 382.034210,443.788971 
	C368.049438,444.092194 354.049835,444.053589 340.063110,443.799896 
	C331.442474,443.643555 328.143738,439.877930 328.124298,431.285126 
	C328.104065,422.342316 328.119812,413.399475 328.119812,404.010742 
	C326.127014,404.010742 324.332001,404.010773 322.536987,404.010773 
	C301.883026,404.010773 281.229065,404.026001 260.575134,404.003967 
	C250.932755,403.993683 247.809570,400.817566 247.762909,391.060211 
	C247.736633,385.563721 248.127167,380.036346 247.673691,374.577423 
	C246.949097,365.854614 250.100388,358.836700 255.366806,352.128052 
	C271.401154,331.702698 287.159332,311.060547 303.243713,290.222809 
M400.522400,394.762543 
	C404.294403,394.762543 408.066406,394.762543 411.787659,394.762543 
	C411.787659,385.016602 411.787659,375.932617 411.787659,366.624603 
	C406.799194,366.624603 402.145386,366.629608 397.491547,366.623535 
	C387.487701,366.610474 385.766846,364.931885 385.764832,355.118622 
	C385.758636,324.967346 385.762543,294.816101 385.762543,264.664825 
	C385.762543,262.890289 385.762543,261.115784 385.762543,259.007690 
	C372.862000,259.007690 360.544434,259.377136 348.264313,258.859192 
	C341.655487,258.580414 337.528015,260.983795 333.626892,266.106171 
	C311.032715,295.773193 288.849182,325.799652 265.062500,354.490570 
	C254.356934,367.403381 258.449493,380.851013 257.180786,394.762543 
	C259.883423,394.762543 261.701599,394.762543 263.519775,394.762543 
	C285.008820,394.762787 306.497925,394.728607 327.986847,394.781769 
	C335.588684,394.800598 337.817627,397.108307 337.870911,404.629181 
	C337.900421,408.793518 337.876312,412.958221 337.876312,417.122772 
	C337.876343,422.696838 337.876312,428.270905 337.876312,433.816345 
	C353.967194,433.816345 369.546478,433.816345 385.519318,433.816345 
	C385.609253,431.910004 385.747467,430.285950 385.752075,428.661469 
	C385.775726,420.332458 385.680511,412.002167 385.793823,403.674622 
	C385.880096,397.333740 388.277954,395.003876 394.554596,394.776794 
	C396.218292,394.716614 397.885925,394.764343 400.522400,394.762543 
z"/>
<path fill="#591A46" opacity="1.000000" stroke="none" 
	d="
M141.211349,89.179016 
	C146.951950,88.537224 152.383194,87.952820 157.812790,87.967613 
	C163.273666,87.982483 168.915649,87.839462 174.152863,89.108505 
	C183.542969,91.383842 188.104736,99.236320 187.025803,109.393517 
	C186.149414,117.644211 180.017456,123.344017 170.579697,123.801094 
	C161.935211,124.219757 153.252136,124.085793 144.597595,123.819809 
	C143.097321,123.773705 140.389786,121.870407 140.381027,120.807266 
	C140.294922,110.373367 140.662521,99.935738 141.211349,89.179016 
z"/>
<path fill="#591946" opacity="1.000000" stroke="none" 
	d="
M218.099548,276.923523 
	C232.946838,293.210114 233.635849,318.597839 224.433655,333.465515 
	C218.040527,343.794647 208.640198,350.905334 198.805511,357.535553 
	C185.558197,366.466431 172.240479,375.292847 158.969772,384.189178 
	C157.453537,385.205597 155.881149,386.222534 154.617325,387.515381 
	C150.815475,391.404541 152.163345,396.046844 157.421555,397.198486 
	C159.186707,397.585114 161.053787,397.619415 162.874527,397.621765 
	C184.034058,397.648956 205.193634,397.639160 226.353195,397.639191 
	C228.153702,397.639191 229.954208,397.639160 232.049896,397.639160 
	C232.049896,409.811005 232.049896,421.570282 232.049896,433.724670 
	C184.937500,433.724670 137.733887,433.724670 89.932419,433.724670 
	C89.932419,425.422180 89.653069,416.978180 90.135422,408.577911 
	C90.251144,406.562347 92.603737,404.341766 94.426598,402.808899 
	C114.181114,386.197296 134.159042,369.849426 153.803802,353.110107 
	C162.148514,345.999573 170.407822,338.635437 177.714127,330.496246 
	C188.162628,318.856628 187.717117,302.605011 177.714752,293.641663 
	C167.233292,284.248993 148.842651,285.042847 138.041489,295.578522 
	C134.966476,298.577911 132.293549,302.039856 129.748932,305.518402 
	C127.209976,308.989197 125.063148,312.746826 122.514091,316.739441 
	C112.462646,311.781708 102.527016,306.868225 92.577789,301.982422 
	C89.929176,300.681763 90.648293,299.040314 91.839119,297.111633 
	C108.336548,270.392426 131.593796,255.767868 163.667206,256.615448 
	C180.431824,257.058472 196.409195,260.043823 210.316055,270.147675 
	C212.996231,272.094910 215.371323,274.462067 218.099548,276.923523 
z"/>
<path fill="#591A46" opacity="1.000000" stroke="none" 
	d="
M400.037048,394.762512 
	C397.885925,394.764343 396.218292,394.716614 394.554596,394.776794 
	C388.277954,395.003876 385.880096,397.333740 385.793823,403.674622 
	C385.680511,412.002167 385.775726,420.332458 385.752075,428.661469 
	C385.747467,430.285950 385.609253,431.910004 385.519318,433.816345 
	C369.546478,433.816345 353.967194,433.816345 337.876312,433.816345 
	C337.876312,428.270905 337.876343,422.696838 337.876312,417.122772 
	C337.876312,412.958221 337.900421,408.793518 337.870911,404.629181 
	C337.817627,397.108307 335.588684,394.800598 327.986847,394.781769 
	C306.497925,394.728607 285.008820,394.762787 263.519775,394.762543 
	C261.701599,394.762543 259.883423,394.762543 257.180786,394.762543 
	C258.449493,380.851013 254.356934,367.403381 265.062500,354.490570 
	C288.849182,325.799652 311.032715,295.773193 333.626892,266.106171 
	C337.528015,260.983795 341.655487,258.580414 348.264313,258.859192 
	C360.544434,259.377136 372.862000,259.007690 385.762543,259.007690 
	C385.762543,261.115784 385.762543,262.890289 385.762543,264.664825 
	C385.762543,294.816101 385.758636,324.967346 385.764832,355.118622 
	C385.766846,364.931885 387.487701,366.610474 397.491547,366.623535 
	C402.145386,366.629608 406.799194,366.624603 411.787659,366.624603 
	C411.787659,375.932617 411.787659,385.016602 411.787659,394.762543 
	C408.066406,394.762543 404.294403,394.762543 400.037048,394.762512 
M302.722900,366.645660 
	C311.871674,366.644257 321.021973,366.743042 330.168732,366.606476 
	C336.342224,366.514282 338.534790,364.219788 338.621765,358.017578 
	C338.719757,351.032593 338.645996,344.045197 338.645477,337.058868 
	C338.644836,328.908142 338.964111,320.737885 338.470367,312.617096 
	C338.292328,309.688324 336.924164,305.606812 334.748444,304.299957 
	C331.111542,302.115417 328.536163,305.822021 326.314087,308.552612 
	C325.895844,309.066589 325.550598,309.639526 325.163696,310.179535 
	C314.999756,324.365295 304.831726,338.548187 294.672150,352.737091 
	C292.361176,355.964600 288.689697,359.727112 291.615265,363.302673 
	C293.521240,365.632111 298.297821,365.612762 302.722900,366.645660 
z"/>
<path fill="#F7F4F6" opacity="1.000000" stroke="none" 
	d="
M302.255676,366.645630 
	C298.297821,365.612762 293.521240,365.632111 291.615265,363.302673 
	C288.689697,359.727112 292.361176,355.964600 294.672150,352.737091 
	C304.831726,338.548187 314.999756,324.365295 325.163696,310.179535 
	C325.550598,309.639526 325.895844,309.066589 326.314087,308.552612 
	C328.536163,305.822021 331.111542,302.115417 334.748444,304.299957 
	C336.924164,305.606812 338.292328,309.688324 338.470367,312.617096 
	C338.964111,320.737885 338.644836,328.908142 338.645477,337.058868 
	C338.645996,344.045197 338.719757,351.032593 338.621765,358.017578 
	C338.534790,364.219788 336.342224,366.514282 330.168732,366.606476 
	C321.021973,366.743042 311.871674,366.644257 302.255676,366.645630 
M317.979462,336.497559 
	C313.209290,343.147858 308.439148,349.798157 303.378235,356.853821 
	C312.502625,356.853821 320.604553,356.853821 328.804138,356.853821 
	C328.804138,345.245819 328.804138,333.899963 328.804138,321.452545 
	C324.912415,326.845306 321.644348,331.373871 317.979462,336.497559 
z"/>
<path fill="#5A1A47" opacity="1.000000" stroke="none" 
	d="
M318.177856,336.199982 
	C321.644348,331.373871 324.912415,326.845306 328.804138,321.452545 
	C328.804138,333.899963 328.804138,345.245819 328.804138,356.853821 
	C320.604553,356.853821 312.502625,356.853821 303.378235,356.853821 
	C308.439148,349.798157 313.209290,343.147858 318.177856,336.199982 
z"/>
</svg>